<svg width="24" height="24" viewBox="0 0 24 24" fill="none" xmlns="http://www.w3.org/2000/svg">
<path d="M6.5 1C3.46244 1 1 3.46244 1 6.5V17.5C1 20.5375 3.46244 23 6.5 23H17.5C20.5375 23 23 20.5375 23 17.5V6.5C23 3.46244 20.5375 1 17.5 1H6.5ZM3 6.5C3 4.567 4.567 3 6.5 3H17.5C19.433 3 21 4.56701 21 6.5V17.5C21 19.433 19.433 21 17.5 21H6.5C4.56701 21 3 19.433 3 17.5V6.5Z" fill="#5212A4" stroke="#5212A4"/>
<path fill-rule="evenodd" clip-rule="evenodd" d="M1.5 8C1.5 7.72386 1.72386 7.5 2 7.5H22C22.2761 7.5 22.5 7.72386 22.5 8C22.5 8.27614 22.2761 8.5 22 8.5H2C1.72386 8.5 1.5 8.27614 1.5 8Z" fill="#5212A4"/>
<path fill-rule="evenodd" clip-rule="evenodd" d="M7.84202 1.5258C8.10399 1.43847 8.38715 1.58005 8.47448 1.84202L10.4745 7.84202C10.5618 8.104 10.4202 8.38716 10.1582 8.47448C9.89628 8.5618 9.61312 8.42022 9.52579 8.15825L7.52579 2.15825C7.43847 1.89628 7.58005 1.61312 7.84202 1.5258ZM13.842 1.5258C14.104 1.43847 14.3872 1.58005 14.4745 1.84202L16.4745 7.84202C16.5618 8.104 16.4202 8.38716 16.1582 8.47448C15.8963 8.5618 15.6131 8.42022 15.5258 8.15825L13.5258 2.15825C13.4385 1.89628 13.5801 1.61312 13.842 1.5258ZM10.1582 18.0001L10 12L15.5258 15L10.1582 18.0001Z" fill="#5212A4"/>
</svg>
